<svg xmlns="http://www.w3.org/2000/svg" width="352" height="32" viewBox="0 0 352 32" shape-rendering="crispEdges">
  <defs>
    <g id="sigil-base">
      <path fill="#080a0d" d="M10 1h12v2h4v3h3v4h2v12h-2v4h-3v3h-4v2H10v-2H6v-3H3v-4H1V10h2V6h3V3h4z"/>
      <path fill="currentColor" d="M10 3h12v2h4v4h2v14h-2v4h-4v2H10v-2H6v-4H4V9h2V5h4zm0 3v2H8v16h2v2h12v-2h2V8h-2V6z"/>
      <path fill="#20262d" d="M10 8h12v2h2v12h-2v2H10v-2H8V10h2z"/>
      <path fill="#14191f" d="M12 10h10v2h2v8h-2v2H10V12h2z"/>
      <path fill="#39424b" d="M8 8h2v2H8zm14 0h2v2h-2zM8 22h2v2H8zm14 0h2v2h-2z"/>
      <path fill="#ffffff" fill-opacity=".42" d="M10 4h7v2h-7z"/>
    </g>
    <g id="flamethrower">
      <path fill="#ffde55" d="M8 15h4v-3h3v2h3v-3h2v3h3v2h3v3h-4v2h-5v-2h-5v-2H8z"/>
      <path fill="#ff7a27" d="M10 15h5v1h7v3h-5v-1h-7z"/>
      <path fill="#fff3b0" d="M9 16h7v1H9z"/>
    </g>
    <g id="surf">
      <path fill="#e9fbff" d="M8 13h3v-2h7v2h3v2h3v3h-4v-2h-4v2h-3v2h12v3H8v-3h2v-3h3v-2h5v-1h-7v2H8z"/>
      <path fill="#35c9e8" d="M10 20h15v3H10zm3-3h4v2h-4zm5-2h5v2h-5z"/>
      <path fill="#176aa8" d="M10 23h12v2H10z"/>
    </g>
    <g id="toxic-spikes">
      <path fill="#dbff52" d="M8 22l4-11 4 11h-3v3h-3v-3zm8 0l4-14 4 14h-3v3h-3v-3z"/>
      <path fill="#f061c9" d="M10 20l2-6 2 6zm8 0l2-8 2 8z"/>
      <path fill="#6d247d" d="M8 25h16v2H8z"/>
    </g>
    <g id="close-combat">
      <path fill="#f3d3a0" d="M7 10h3v3h2v3h3v4h-2v3H9v-2H7v-4H5v-4h2zm18 0h-3v3h-2v3h-3v4h2v3h4v-2h2v-4h2v-4h-2z"/>
      <path fill="#ffffff" d="M14 13h4v2h-4zm-3-4h2v3h-2zm8 0h2v3h-2zm-6 13h6v3h-6z"/>
      <path fill="#ef553d" d="M14 16h4v4h-4z"/>
    </g>
    <g id="shadow-sneak">
      <path fill="#d8c7ff" d="M18 7h6v3h-3v3h-3v5h-5v-3h2v-5h3z"/>
      <path fill="#8d72c7" d="M10 17h5v3h-2v4H9v-2H7v-3h3zm9 3h5v4h-2v2h-5v-3h2z"/>
      <path fill="#080a0d" d="M7 26h18v2H7z"/>
    </g>
    <g id="psybeam">
      <path fill="#f7e8ff" d="M6 13h10v2h3v4h-3v2H6v-2H4v-4h2z"/>
      <path fill="#64e6ff" d="M9 14h5v2h2v2h-2v2H9v-2H7v-2h2z"/>
      <path fill="#222631" d="M11 15h3v4h-3z"/>
      <path fill="#ffda45" d="M18 14h4v2h5v2h-5v2h-4v-2h3v-2h-3z"/>
      <path fill="#e85aaf" d="M22 12h3v2h-3zm0 8h3v2h-3z"/>
    </g>
    <g id="volt-tackle">
      <path fill="#fff6b0" d="M9 13h3V9h7v2h4v4h3v5h-4v3H12v-2H8v-5H6z"/>
      <path fill="#f6d52d" d="M7 7h7v3h-3v3H7zm16 12h4v3h-3v4h-6v-3h4z"/>
      <path fill="#30343a" d="M18 14h3v3h-3z"/>
      <path fill="#ffffff" d="M10 15h6v2h-6z"/>
    </g>
    <g id="fire-spin">
      <path fill="#ffdc43" d="M9 10h12v2h3v3h2v7h-3v3H11v-2H8v-4h3v2h11v-2H12v-2h10v-3h-3v-2H9z"/>
      <path fill="#ff7524" d="M7 8h6v2H9v3H7zm8 6h5v2h-5zm-5 9h8v2h-8z"/>
      <path fill="#fff2a0" d="M22 9h3v4h-2v-2h-1z"/>
    </g>
    <g id="rock-slide">
      <path fill="#d8b072" d="M7 8h7l3 4-2 5H8l-3-4zm11 5h7l3 5-3 5h-8l-2-5zM8 20h7l2 4-3 3H7l-2-3z"/>
      <path fill="#77604b" d="M8 10h4v2H8zm11 5h5v2h-5zM8 22h4v2H8z"/>
      <path fill="#f0d59d" d="M7 8h5v2H7zm12 5h4v2h-4z"/>
    </g>
    <g id="recover">
      <path fill="#ecfff0" d="M13 7h6v6h6v6h-6v6h-6v-6H7v-6h6z"/>
      <path fill="#7df29d" d="M15 9h2v6h6v2h-6v6h-2v-6H9v-2h6z"/>
      <path fill="#ffffff" d="M15 9h2v6h-2z"/>
      <path fill="#267d4a" d="M6 24h4v2H6zm16 0h4v2h-4zM6 6h4v2H6zm16 0h4v2h-4z"/>
    </g>
    <g id="dark-pulse">
      <path fill="#d9b5ff" d="M14 13h4v2h2v4h-2v2h-4v-2h-2v-4h2z"/>
      <path fill="#9c62d6" d="M9 10h14v2h3v3h2v4h-2v3h-3v-2h2v-6h-2v-2H9zm0 12h14v2H9z"/>
      <path fill="#4a2872" d="M6 7h20v2h2v2h-3V9H7v2H4V9h2zm0 18h20v2H6z"/>
      <path fill="#111318" d="M15 15h2v4h-2z"/>
    </g>
  </defs>
  <g transform="translate(0 0)">
    <use href="#sigil-base" color="#ef452f"/>
    <use href="#flamethrower"/>
  </g>
  <g transform="translate(32 0)">
    <use href="#sigil-base" color="#258ed1"/>
    <use href="#surf"/>
  </g>
  <g transform="translate(64 0)">
    <use href="#sigil-base" color="#b942bf"/>
    <use href="#toxic-spikes"/>
  </g>
  <g transform="translate(96 0)">
    <use href="#sigil-base" color="#cf3f38"/>
    <use href="#close-combat"/>
  </g>
  <g transform="translate(128 0)">
    <use href="#sigil-base" color="#7550a8"/>
    <use href="#shadow-sneak"/>
  </g>
  <g transform="translate(160 0)">
    <use href="#sigil-base" color="#e85aaf"/>
    <use href="#psybeam"/>
  </g>
  <g transform="translate(192 0)">
    <use href="#sigil-base" color="#f2c72b"/>
    <use href="#volt-tackle"/>
  </g>
  <g transform="translate(224 0)">
    <use href="#sigil-base" color="#ef452f"/>
    <use href="#fire-spin"/>
  </g>
  <g transform="translate(256 0)">
    <use href="#sigil-base" color="#b07a3f"/>
    <use href="#rock-slide"/>
  </g>
  <g transform="translate(288 0)">
    <use href="#sigil-base" color="#45ad67"/>
    <use href="#recover"/>
  </g>
  <g transform="translate(320 0)">
    <use href="#sigil-base" color="#7550a8"/>
    <use href="#dark-pulse"/>
  </g>
</svg>